<?xml version="1.0" encoding="UTF-8" standalone="no"?>
<svg
   xmlns:dc="http://purl.org/dc/elements/1.1/"
   xmlns:cc="http://creativecommons.org/ns#"
   xmlns:rdf="http://www.w3.org/1999/02/22-rdf-syntax-ns#"
   xmlns:svg="http://www.w3.org/2000/svg"
   xmlns="http://www.w3.org/2000/svg"
   viewBox="0 0 696 170.66667"
   height="170.66667"
   width="696"
   xml:space="preserve"
   id="svg2"
   version="1.1"><metadata
     id="metadata8"><rdf:RDF><cc:Work
         rdf:about=""><dc:format>image/svg+xml</dc:format><dc:type
           rdf:resource="http://purl.org/dc/dcmitype/StillImage" /></cc:Work></rdf:RDF></metadata><defs
     id="defs6" /><g
     transform="matrix(1.3333333,0,0,-1.3333333,0,170.66667)"
     id="g10"><g
       transform="scale(0.1)"
       id="g12"><path
         id="path14"
         style="fill:#ca5862;fill-opacity:1;fill-rule:evenodd;stroke:none"
         d="m 1371.96,1273.72 c 35.02,-76.56 45.2,-166.19 104.79,-230.48 72.12,-95.9 192.06,-130.388 305.21,-147.373 -222.38,-95.383 -480.03,149.203 -410,377.853" /><path
         id="path16"
         style="fill:#ca5862;fill-opacity:1;fill-rule:evenodd;stroke:none"
         d="m 1243.4,1243.41 c 12.28,-261.836 246.15,-488.918 510.33,-480.555 -153.9,-78.39 -352.77,-0.785 -451.02,133.012 -69.25,96.68 -110.01,234.913 -59.31,347.543" /><path
         id="path18"
         style="fill:#ca5862;fill-opacity:1;fill-rule:nonzero;stroke:none"
         d="m 1956.03,38.5664 158.51,599.0116 h 107.56 l -29.04,-109.742 v 0 c 69.96,86.883 146.53,130.316 229.72,130.316 24.56,0 44.56,-2.281 60.03,-6.859 l -32.67,-123.457 c -28.1,7.625 -52.55,11.43 -73.35,11.43 -55.21,0 -102.93,-16.383 -143.16,-49.153 -42.97,-35.058 -72.83,-84.215 -89.58,-147.465 L 2063.59,38.5664 h -107.56" /><path
         id="path20"
         style="fill:#ca5862;fill-opacity:1;fill-rule:nonzero;stroke:none"
         d="m 1525.09,381.516 353.88,256.062 h 163.49 L 1718.27,412.383 1904.39,38.5664 H 1758.11 L 1612.55,338.07 1491.51,254.621 1434.34,38.5664 h -107.56 l 158.04,597.2536 107.6,0.149 -67.33,-254.453" /><path
         id="path22"
         style="fill:#ca5862;fill-opacity:1;fill-rule:nonzero;stroke:none"
         d="m 1079.38,38.5664 158.5,599.0116 h 107.57 L 1186.95,38.5664 h -107.57" /><path
         id="path24"
         style="fill:#ca5862;fill-opacity:1;fill-rule:nonzero;stroke:none"
         d="m 502.082,178.031 486.723,676.75 H 1146.92 L 930.934,38.5664 H 816.914 L 996,715.316 v 0 L 516.09,38.5664 H 414.27 L 289.969,701.598 v 0 L 114.516,38.5664 H 0.496094 L 216.484,854.781 h 160.27 l 125.328,-676.75" /><path
         id="path26"
         style="fill:#ca5862;fill-opacity:1;fill-rule:evenodd;stroke:none"
         d="m 3127.97,647.355 h 855.71 l 48.39,235.899 h -855.71 l -48.39,-235.899" /><path
         id="path28"
         style="fill:#ca5862;fill-opacity:1;fill-rule:evenodd;stroke:none"
         d="m 3362.84,534.469 h 304.17 L 3548.17,41.1602 H 3244 l 118.84,493.3088" /><path
         id="path30"
         style="fill:#ca5862;fill-opacity:1;fill-rule:evenodd;stroke:none"
         d="m 4108.82,882.734 h 276.51 l -49.97,-235.656 h -276.51 l 49.97,235.656" /><path
         id="path32"
         style="fill:#ca5862;fill-opacity:1;fill-rule:evenodd;stroke:none"
         d="M 4038.58,534.742 H 4307.3 L 4187.45,36.1719 h -268.72 l 119.85,498.5701" /><path
         id="path34"
         style="fill:#ca5862;fill-opacity:1;fill-rule:evenodd;stroke:none"
         d="m 4320.04,37.2109 h 289.64 L 4809.59,885.043 H 4519.95 L 4320.04,37.2109" /><path
         id="path36"
         style="fill:#ca5862;fill-opacity:1;fill-rule:evenodd;stroke:none"
         d="m 4760.75,37.7813 h 308.12 L 4925.16,419.238 H 4617.04 L 4760.75,37.7813" /><path
         id="path38"
         style="fill:#ca5862;fill-opacity:1;fill-rule:evenodd;stroke:none"
         d="m 4900.14,646.309 h 317.04 L 4691.09,216.371 h -317.05 l 526.1,429.938" /><path
         id="path40"
         style="fill:#ca5862;fill-opacity:1;fill-rule:nonzero;stroke:none"
         d="m 2415.94,341.773 c 15.49,96.227 58.67,175.215 129.56,236.961 76.47,66.559 173.24,99.836 290.32,99.836 117.08,0 203.54,-33.277 259.38,-99.836 C 3145.4,516.988 3162.76,438 3147.27,341.773 3131.78,245.547 3089,166.559 3018.91,104.813 2941.64,38.2539 2844.46,4.97656 2727.38,4.97656 c -117.07,0 -203.13,33.27734 -258.17,99.83644 -51.01,61.746 -68.76,140.734 -53.27,236.96 z m 603.83,0 c 10.46,64.954 1.06,118.68 -28.18,161.184 -33.7,49.719 -91.04,74.578 -172.04,74.578 -80.99,0 -146.34,-24.859 -196.03,-74.578 -42.93,-42.504 -69.63,-96.23 -80.08,-161.184 -10.46,-64.953 -1.06,-118.679 28.18,-161.179 33.7,-49.719 91.04,-74.582 172.03,-74.582 80.99,0 146.34,24.863 196.05,74.582 42.92,42.5 69.61,96.226 80.07,161.179" /></g></g></svg>